<?xml version="1.0" encoding="UTF-8"?>
<svg id="Layer_2" data-name="Layer 2" xmlns="http://www.w3.org/2000/svg" viewBox="0 0 393 102.11">
  <defs>
    <style>
      .cls-1 {
        fill: #fff;
      }

      .cls-2 {
        fill: #a5cd39;
      }

      .cls-3 {
        fill: #0c0c0c;
      }
    </style>
  </defs>
  <g id="Layer_1-2" data-name="Layer 1">
    <g>
      <g>
        <path class="cls-1" d="m201.22,63.3l-4.09-43.45h13.38l2.04,31.27h.77l15.08-31.27h14.06l-22.75,43.45h-18.49Z"/>
        <path class="cls-1" d="m257.45,63.98c-5,0-8.92-.36-11.76-1.07-2.84-.71-4.83-1.87-5.96-3.49s-1.7-3.68-1.7-6.18c0-1.53.13-3.27.38-5.2.25-1.93.64-4.06,1.15-6.39.79-3.92,1.67-7.3,2.64-10.14.96-2.84,2.26-5.17,3.88-6.99,1.62-1.82,3.85-3.16,6.69-4.05,2.84-.88,6.59-1.32,11.25-1.32s7.88.34,10.35,1.02c2.47.68,4.2,1.73,5.2,3.15.99,1.42,1.49,3.3,1.49,5.62,0,1.08-.08,2.31-.26,3.7-.17,1.39-.41,2.84-.72,4.35s-.67,3.05-1.07,4.64l-.77,3.32h-25.9c-.17.85-.34,1.73-.51,2.64-.17.91-.25,1.65-.25,2.21,0,1.14.27,1.97.81,2.51.54.54,1.56.89,3.07,1.06,1.5.17,3.71.26,6.6.26,1.14,0,2.46-.03,3.96-.08,1.5-.06,3.08-.14,4.73-.26,1.65-.11,3.21-.23,4.68-.34l-1.96,9.54c-1.25.28-2.77.54-4.56.77-1.79.23-3.69.4-5.71.51-2.02.11-3.93.17-5.75.17Zm-3.58-26.07h13.2l.26-1.02c.17-1.02.31-1.9.42-2.64.11-.74.17-1.39.17-1.96,0-.97-.17-1.69-.51-2.17-.34-.48-.91-.79-1.7-.94-.8-.14-1.85-.21-3.15-.21-1.53,0-2.78.1-3.75.3-.97.2-1.73.61-2.3,1.24-.57.63-1.05,1.53-1.45,2.73-.4,1.19-.79,2.76-1.19,4.68Z"/>
        <path class="cls-1" d="m281.48,63.3L294.77,0h13.89l-13.37,63.3h-13.8Z"/>
        <path class="cls-1" d="m322.54,63.98c-5.06,0-9-.31-11.84-.94s-4.84-1.7-6.01-3.24c-1.17-1.53-1.75-3.61-1.75-6.22,0-1.53.17-3.28.51-5.24.34-1.96.77-4.22,1.28-6.77.79-3.63,1.53-6.73,2.22-9.28.68-2.56,1.52-4.69,2.51-6.39.99-1.7,2.27-3.05,3.84-4.05,1.56-.99,3.61-1.69,6.13-2.09,2.53-.4,5.67-.6,9.41-.6,5.06,0,8.99.31,11.8.94,2.81.63,4.8,1.7,5.96,3.24,1.16,1.53,1.75,3.64,1.75,6.3,0,1.53-.13,3.28-.38,5.24-.25,1.96-.67,4.19-1.24,6.69-.79,3.64-1.56,6.73-2.3,9.29-.74,2.56-1.59,4.69-2.56,6.39-.97,1.7-2.23,3.05-3.79,4.05-1.56.99-3.61,1.69-6.13,2.09-2.53.4-5.67.6-9.42.6Zm.6-10.14c1.48,0,2.7-.07,3.66-.21.96-.14,1.75-.44,2.34-.89.6-.45,1.11-1.12,1.53-2,.43-.88.82-2.07,1.19-3.58.37-1.51.78-3.37,1.23-5.58.45-2.1.8-3.86,1.02-5.28.23-1.42.34-2.58.34-3.49,0-1.02-.2-1.78-.6-2.26s-1.05-.81-1.96-.98c-.91-.17-2.13-.25-3.66-.25-1.82,0-3.27.11-4.34.34-1.08.23-1.9.77-2.47,1.62-.57.85-1.07,2.09-1.49,3.71-.42,1.62-.95,3.82-1.58,6.6-.4,2.16-.74,3.95-1.02,5.37-.28,1.42-.43,2.59-.43,3.49,0,.97.2,1.7.6,2.21.4.51,1.05.84,1.96.98.91.14,2.13.21,3.67.21Z"/>
        <path class="cls-1" d="m345.63,63.3l1.96-9.63,25.13-23.69h-18.92l2.13-10.14h37.06l-2.04,9.63-25.05,23.69h20.11l-2.13,10.14h-38.25Z"/>
      </g>
      <g>
        <path class="cls-2" d="m320.01,69.57h-34.78c-1.67,0-3.14,1.24-3.31,2.9-.19,1.91,1.33,3.54,3.21,3.54h28.07c2.1,0,3.66,1.93,3.23,3.98h0c-.32,1.53-1.67,2.62-3.23,2.62h-19.08c-1.67,0-3.14,1.24-3.31,2.9-.19,1.91,1.33,3.54,3.21,3.54h16.43c2.1,0,3.66,1.93,3.23,3.98h0c-.32,1.53-1.67,2.62-3.23,2.62h-7.48c-1.77,0-3.22,1.45-3.22,3.22h0c0,1.77,1.45,3.22,3.22,3.22h60.46c7.68,0,14.31-5.38,15.89-12.89l4.14-19.64h-63.45Z"/>
        <g>
          <path class="cls-3" d="m326.71,99.42l14.51-21.85h-12.62l1.14-5.28h20.15l-1.03,4.81-14.2,22.32h-7.97Z"/>
          <path class="cls-3" d="m349.74,99.42l14.51-21.85h-12.62l1.14-5.28h20.15l-1.03,4.81-14.2,22.32h-7.97Z"/>
        </g>
        <g>
          <path class="cls-2" d="m0,62.96L31.69,4.34h20.19l6.73,58.62h-14.48l-1.36-11.59h-21.55l-6.31,11.59H0Zm26.41-22.49h15.59l-2.47-23.35h-.6l-12.52,23.35Z"/>
          <path class="cls-2" d="m75.57,80.51c-1.87,0-3.78-.04-5.71-.13s-3.72-.21-5.37-.38c-1.65-.17-3.04-.37-4.17-.6l2.04-9.46c1.19.06,2.46.1,3.79.13,1.33.03,2.7.04,4.09.04h3.96c2.78,0,5-.1,6.65-.3,1.65-.2,2.9-.63,3.75-1.28.85-.65,1.52-1.62,2-2.9.48-1.28.95-3,1.41-5.16.11-.51.24-1.02.38-1.53.14-.51.27-1.02.38-1.53h-.68c-1.14,1.48-2.39,2.6-3.75,3.37-1.36.77-2.83,1.29-4.39,1.58-1.56.28-3.28.43-5.15.43-2.5,0-4.59-.33-6.26-.98-1.68-.65-2.91-1.75-3.71-3.28s-1.19-3.64-1.19-6.31c0-1.47.13-3.15.38-5.03.25-1.87.61-3.97,1.07-6.3.91-4.31,1.92-7.9,3.02-10.74,1.11-2.84,2.38-5.08,3.83-6.73,1.45-1.65,3.17-2.83,5.16-3.54,1.99-.71,4.31-1.07,6.99-1.07,1.59,0,3.14.16,4.64.47,1.5.31,2.82.9,3.96,1.75,1.13.85,1.96,2.1,2.47,3.75h.77l1.45-5.28h13.04l-8.18,38.51c-.68,3.13-1.39,5.92-2.13,8.39-.74,2.47-1.68,4.59-2.81,6.35-1.14,1.76-2.61,3.21-4.43,4.34-1.82,1.13-4.13,1.99-6.94,2.56-2.81.57-6.26.85-10.35.85Zm7.67-28.88c1.08,0,2-.07,2.77-.21.76-.14,1.42-.41,1.96-.81.54-.39,1.04-.91,1.49-1.53.28-.45.6-1.15.94-2.09.34-.94.67-2,.98-3.2.31-1.19.6-2.41.85-3.66s.47-2.41.64-3.49c.17-1.08.25-1.99.25-2.73,0-1.48-.44-2.48-1.32-3.02-.88-.54-2.23-.81-4.05-.81-1.53,0-2.77.1-3.71.3-.94.2-1.7.64-2.3,1.32-.6.68-1.11,1.76-1.53,3.24-.43,1.48-.9,3.47-1.41,5.96-.4,1.76-.7,3.24-.9,4.43-.2,1.19-.3,2.19-.3,2.98,0,.97.18,1.69.55,2.17s.97.79,1.79.94c.82.14,1.92.21,3.28.21Z"/>
          <path class="cls-2" d="m108.88,62.96l9.2-43.45h13.03l-1.28,7.75h.68c1.3-2.33,2.67-4.09,4.09-5.28,1.42-1.19,3.08-2.02,4.98-2.47,1.9-.45,4.13-.68,6.69-.68l-2.64,12.35c-2.95,0-5.44.27-7.45.81s-3.65,1.42-4.9,2.64c-1.25,1.22-2.29,2.84-3.11,4.86-.82,2.02-1.55,4.53-2.17,7.54l-3.49,15.93h-13.63Z"/>
        </g>
        <g>
          <path class="cls-2" d="m188.63,43.18c-.22,6.58-2.12,11.67-5.73,15.23-3.85,3.8-9.11,5.69-15.79,5.69-2.28,0-4.37-.24-6.32-.68-.06.15-.13.29-.19.44-.88,2.1-1.72,4.21-2.5,6.34-.29.79-.58,1.6-.87,2.41-.09.25-.32.41-.58.41h-3.38c-.42,0-.72-.41-.58-.81.33-.97.69-1.94,1.03-2.89.79-2.12,1.62-4.24,2.5-6.34.13-.31.27-.63.41-.94h0c1.65-3.87,3.47-7.69,5.48-11.39,2.19-3.99,4.61-7.88,7.45-11.46,2.7-3.41,5.79-6.58,9.59-8.95.09-.05.03-.19-.07-.16-4.31,1.33-8.37,3.72-12.06,6.48-3.89,2.91-7.44,6.25-10.79,9.76-2.63,2.78-5.13,5.68-7.53,8.67-2.06-3.45-3.09-7.81-3.09-13.11,0-7.27,1.91-12.8,5.73-16.6,3.82-3.8,9.07-5.69,15.76-5.69h21.55v21.67l-.02,1.9Z"/>
          <path class="cls-2" d="m194.78,50.46c-.24-.3-.59-.48-.97-.48h-1.2c-.55,0-1.04.38-1.18.92-1.1,4.24-3.09,7.8-5.91,10.58-2.67,2.64-5.96,4.54-9.76,5.65-.53.15-.89.62-.89,1.17v.93c0,.39.18.74.48.98.21.16.47.25.73.25.1,0,.21-.01.31-.04,4.59-1.25,8.55-3.49,11.77-6.66,3.28-3.23,5.57-7.35,6.82-12.26.09-.36.01-.74-.22-1.04Z"/>
        </g>
      </g>
    </g>
  </g>
</svg>