<?xml version="1.0" encoding="UTF-8"?>
<svg id="Layer_2" data-name="Layer 2" xmlns="http://www.w3.org/2000/svg" viewBox="0 0 393 95.24">
  <defs>
    <style>
      .cls-1 {
        fill: #fff;
      }

      .cls-2 {
        fill: #a5cd39;
      }
    </style>
  </defs>
  <g id="Layer_1-2" data-name="Layer 1">
    <g>
      <path class="cls-1" d="m37.35,5.5C33.26,2.14,26.68.45,17.59.45H1.08C.36.45,0,.84,0,1.62v60.9c0,.65.53,1.17,1.17,1.17h3.25c.65,0,1.17-.53,1.17-1.17V5.59h12c7.22,0,12.39,1.25,15.52,3.74,3.13,2.5,4.69,6.75,4.69,12.77s-1.56,10.17-4.69,12.63c-3.13,2.47-8.3,3.7-15.52,3.7h-2.31c-2.51,0-4.55,2.04-4.55,4.55v.68h6.86c9.02,0,15.59-1.68,19.71-5.05,4.12-3.37,6.18-8.87,6.18-16.51s-2.04-13.23-6.13-16.6Z"/>
      <path class="cls-1" d="m58.38,62.61c0,.72-.36,1.08-1.08,1.08h-3.16c-.66,0-.99-.36-.99-1.08V1.44c0-.66.33-.99.99-.99h3.16c.72,0,1.08.33,1.08.99v61.17Z"/>
      <path class="cls-1" d="m104.57,62.61c0,.72-.36,1.08-1.08,1.08h-2.89c-.66,0-.99-.36-.99-1.08v-7.49c-3.07,6.25-9.02,9.38-17.86,9.38-4.93,0-8.75-1.17-11.46-3.52-2.71-2.35-4.06-5.5-4.06-9.47,0-2.11.36-3.95,1.08-5.55.72-1.59,1.83-2.93,3.34-4.02,1.5-1.08,3.14-1.97,4.92-2.66,1.77-.69,4.03-1.25,6.77-1.67,2.74-.42,5.38-.72,7.94-.9,2.56-.18,5.61-.3,9.16-.36v-3.52c0-4.09-.98-7.07-2.93-8.93-1.95-1.86-5.22-2.8-9.79-2.8-4.99,0-9.93,1.02-14.8,3.07-.72.3-1.17.09-1.35-.63l-.81-2.62c-.18-.54.03-.96.63-1.26,5.11-2.23,10.68-3.34,16.69-3.34s10.59,1.35,13.35,4.06c2.77,2.71,4.15,6.8,4.15,12.27v29.95Zm-5.14-22.01c-3.25.12-5.77.23-7.58.32-1.8.09-3.97.27-6.5.54-2.53.27-4.48.65-5.86,1.13-1.38.48-2.78,1.1-4.2,1.85-1.41.75-2.42,1.7-3.02,2.84-.6,1.14-.9,2.5-.9,4.06,0,2.59.95,4.69,2.84,6.32,1.89,1.62,4.68,2.44,8.35,2.44,5.35,0,9.5-1.35,12.45-4.06,2.95-2.71,4.42-6.1,4.42-10.2v-5.23Z"/>
      <path class="cls-1" d="m151.67,62.61c0,.72-.36,1.08-1.08,1.08h-3.07c-.72,0-1.08-.36-1.08-1.08v-29.14c0-8.12-4.12-12.18-12.36-12.18-4.57,0-8.27,1.32-11.1,3.97-2.83,2.65-4.24,6.08-4.24,10.28v27.07c0,.72-.36,1.08-1.08,1.08h-3.16c-.66,0-.99-.36-.99-1.08V18.59c0-.78.33-1.17.99-1.17h3.07c.72,0,1.08.36,1.08,1.08l.09,7.04c2.89-6.13,8.39-9.2,16.51-9.2,5.41,0,9.5,1.46,12.27,4.38,2.77,2.92,4.15,6.96,4.15,12.13v29.77Z"/>
      <path class="cls-1" d="m169.81,22.19v27.61c0,3.73.57,6.27,1.71,7.62,1.14,1.35,3.28,2.03,6.41,2.03.9,0,2.41-.21,4.51-.63.54-.06.9.24,1.08.9l.72,2.44c.12.54-.12.9-.72,1.08-1.62.66-3.76.99-6.41.99-4.57,0-7.79-1.05-9.65-3.16-1.86-2.11-2.8-5.68-2.8-10.74v-28.15h-7.04c-.72,0-1.08-.36-1.08-1.08v-2.53c0-.78.36-1.17,1.08-1.17h7.13V5.41c0-.72.36-1.08,1.08-1.08h2.89c.72,0,1.08.36,1.08,1.08v12h12.72c.72,0,1.08.39,1.08,1.17v2.53c0,.72-.36,1.08-1.08,1.08h-12.72Z"/>
      <path class="cls-2" d="m224.13,0c1.56,0,2.62.81,3.16,2.44l20.12,58.19c.3.9.26,1.64-.14,2.21-.39.57-1.01.86-1.85.86h-10.74c-1.56,0-2.62-.81-3.16-2.44l-3.34-9.74h-20.93l-3.25,9.74c-.54,1.62-1.56,2.44-3.07,2.44h-10.83c-.84,0-1.46-.29-1.85-.86s-.44-1.31-.13-2.21L208.25,2.44c.54-1.62,1.59-2.44,3.16-2.44h12.72Zm1.08,38.62l-7.31-23.37h-.18l-7.58,23.37h15.07Z"/>
      <path class="cls-2" d="m295.33,54.86c0,6.5-2.08,11.43-6.22,14.8-4.15,3.37-10.1,5.05-17.86,5.05s-13.11-.93-16.96-2.8c-1.38-.72-1.89-1.74-1.53-3.07l1.62-5.59c.48-1.62,1.5-2.14,3.07-1.54,4.09,1.44,8.27,2.17,12.54,2.17,7.7,0,11.55-3.22,11.55-9.65v-3.16c-1.2,2.05-2.98,3.62-5.32,4.74-2.34,1.11-4.96,1.67-7.85,1.67-5.77,0-10.39-1.71-13.85-5.14-3.46-3.43-5.19-8.78-5.19-16.06s1.67-12.69,5.01-16.24c3.34-3.55,7.83-5.32,13.49-5.32,2.95,0,5.64.6,8.07,1.8,2.44,1.2,4.29,2.8,5.55,4.78l.45-3.61c.18-1.32,1.02-1.99,2.53-1.99h8.39c1.68,0,2.53.81,2.53,2.44v36.72Zm-22.92-29.77c-5.65,0-8.48,3.73-8.48,11.19s2.83,11.28,8.48,11.28,8.57-3.85,8.57-11.55c0-7.28-2.86-10.92-8.57-10.92Z"/>
      <path class="cls-2" d="m314.47,15.7c1.5,0,2.34.72,2.53,2.17l.72,6.13c1.08-2.34,2.84-4.41,5.28-6.18,2.44-1.77,5.28-2.66,8.53-2.66,1.56,0,2.34.75,2.34,2.26v9.92c0,1.32-.72,1.99-2.17,1.99-.3,0-.8-.03-1.49-.09-.69-.06-1.31-.09-1.85-.09-3.19,0-5.73,1.08-7.62,3.25-1.89,2.17-2.84,4.9-2.84,8.21v20.57c0,1.68-.81,2.53-2.44,2.53h-9.74c-1.68,0-2.53-.84-2.53-2.53V18.14c0-1.62.84-2.44,2.53-2.44h8.75Z"/>
      <path class="cls-1" d="m58.38,62.61c0,.72-.36,1.08-1.08,1.08h-3.16c-.66,0-.99-.36-.99-1.08V1.44c0-.66.33-.99.99-.99h3.16c.72,0,1.08.33,1.08.99v61.17Z"/>
      <path class="cls-1" d="m104.57,62.61c0,.72-.36,1.08-1.08,1.08h-2.89c-.66,0-.99-.36-.99-1.08v-7.49c-3.07,6.25-9.02,9.38-17.86,9.38-4.93,0-8.75-1.17-11.46-3.52-2.71-2.35-4.06-5.5-4.06-9.47,0-2.11.36-3.95,1.08-5.55.72-1.59,1.83-2.93,3.34-4.02,1.5-1.08,3.14-1.97,4.92-2.66,1.77-.69,4.03-1.25,6.77-1.67,2.74-.42,5.38-.72,7.94-.9,2.56-.18,5.61-.3,9.16-.36v-3.52c0-4.09-.98-7.07-2.93-8.93-1.95-1.86-5.22-2.8-9.79-2.8-4.99,0-9.93,1.02-14.8,3.07-.72.3-1.17.09-1.35-.63l-.81-2.62c-.18-.54.03-.96.63-1.26,5.11-2.23,10.68-3.34,16.69-3.34s10.59,1.35,13.35,4.06c2.77,2.71,4.15,6.8,4.15,12.27v29.95Zm-5.14-22.01c-3.25.12-5.77.23-7.58.32-1.8.09-3.97.27-6.5.54-2.53.27-4.48.65-5.86,1.13-1.38.48-2.78,1.1-4.2,1.85-1.41.75-2.42,1.7-3.02,2.84-.6,1.14-.9,2.5-.9,4.06,0,2.59.95,4.69,2.84,6.32,1.89,1.62,4.68,2.44,8.35,2.44,5.35,0,9.5-1.35,12.45-4.06,2.95-2.71,4.42-6.1,4.42-10.2v-5.23Z"/>
      <path class="cls-1" d="m151.67,62.61c0,.72-.36,1.08-1.08,1.08h-3.07c-.72,0-1.08-.36-1.08-1.08v-29.14c0-8.12-4.12-12.18-12.36-12.18-4.57,0-8.27,1.32-11.1,3.97-2.83,2.65-4.24,6.08-4.24,10.28v27.07c0,.72-.36,1.08-1.08,1.08h-3.16c-.66,0-.99-.36-.99-1.08V18.59c0-.78.33-1.17.99-1.17h3.07c.72,0,1.08.36,1.08,1.08l.09,7.04c2.89-6.13,8.39-9.2,16.51-9.2,5.41,0,9.5,1.46,12.27,4.38,2.77,2.92,4.15,6.96,4.15,12.13v29.77Z"/>
      <path class="cls-1" d="m169.81,22.19v27.61c0,3.73.57,6.27,1.71,7.62,1.14,1.35,3.28,2.03,6.41,2.03.9,0,2.41-.21,4.51-.63.54-.06.9.24,1.08.9l.72,2.44c.12.54-.12.9-.72,1.08-1.62.66-3.76.99-6.41.99-4.57,0-7.79-1.05-9.65-3.16-1.86-2.11-2.8-5.68-2.8-10.74v-28.15h-7.04c-.72,0-1.08-.36-1.08-1.08v-2.53c0-.78.36-1.17,1.08-1.17h7.13V5.41c0-.72.36-1.08,1.08-1.08h2.89c.72,0,1.08.36,1.08,1.08v12h12.72c.72,0,1.08.39,1.08,1.17v2.53c0,.72-.36,1.08-1.08,1.08h-12.72Z"/>
      <path class="cls-2" d="m224.13,0c1.56,0,2.62.81,3.16,2.44l20.12,58.19c.3.9.26,1.64-.14,2.21-.39.57-1.01.86-1.85.86h-10.74c-1.56,0-2.62-.81-3.16-2.44l-3.34-9.74h-20.93l-3.25,9.74c-.54,1.62-1.56,2.44-3.07,2.44h-10.83c-.84,0-1.46-.29-1.85-.86s-.44-1.31-.13-2.21L208.25,2.44c.54-1.62,1.59-2.44,3.16-2.44h12.72Zm1.08,38.62l-7.31-23.37h-.18l-7.58,23.37h15.07Z"/>
      <path class="cls-2" d="m224.13,0c1.56,0,2.62.81,3.16,2.44l20.12,58.19c.3.9.26,1.64-.14,2.21-.39.57-1.01.86-1.85.86h-10.74c-1.56,0-2.62-.81-3.16-2.44l-3.34-9.74h-20.93l-3.25,9.74c-.54,1.62-1.56,2.44-3.07,2.44h-10.83c-.84,0-1.46-.29-1.85-.86s-.44-1.31-.13-2.21L208.25,2.44c.54-1.62,1.59-2.44,3.16-2.44h12.72Zm1.08,38.62l-7.31-23.37h-.18l-7.58,23.37h15.07Z"/>
      <path class="cls-2" d="m295.33,54.86c0,6.5-2.08,11.43-6.22,14.8-4.15,3.37-10.1,5.05-17.86,5.05s-13.11-.93-16.96-2.8c-1.38-.72-1.89-1.74-1.53-3.07l1.62-5.59c.48-1.62,1.5-2.14,3.07-1.54,4.09,1.44,8.27,2.17,12.54,2.17,7.7,0,11.55-3.22,11.55-9.65v-3.16c-1.2,2.05-2.98,3.62-5.32,4.74-2.34,1.11-4.96,1.67-7.85,1.67-5.77,0-10.39-1.71-13.85-5.14-3.46-3.43-5.19-8.78-5.19-16.06s1.67-12.69,5.01-16.24c3.34-3.55,7.83-5.32,13.49-5.32,2.95,0,5.64.6,8.07,1.8,2.44,1.2,4.29,2.8,5.55,4.78l.45-3.61c.18-1.32,1.02-1.99,2.53-1.99h8.39c1.68,0,2.53.81,2.53,2.44v36.72Zm-22.92-29.77c-5.65,0-8.48,3.73-8.48,11.19s2.83,11.28,8.48,11.28,8.57-3.85,8.57-11.55c0-7.28-2.86-10.92-8.57-10.92Z"/>
      <path class="cls-2" d="m314.47,15.7c1.5,0,2.34.72,2.53,2.17l.72,6.13c1.08-2.34,2.84-4.41,5.28-6.18,2.44-1.77,5.28-2.66,8.53-2.66,1.56,0,2.34.75,2.34,2.26v9.92c0,1.32-.72,1.99-2.17,1.99-.3,0-.8-.03-1.49-.09-.69-.06-1.31-.09-1.85-.09-3.19,0-5.73,1.08-7.62,3.25-1.89,2.17-2.84,4.9-2.84,8.21v20.57c0,1.68-.81,2.53-2.44,2.53h-9.74c-1.68,0-2.53-.84-2.53-2.53V18.14c0-1.62.84-2.44,2.53-2.44h8.75Z"/>
      <g>
        <path class="cls-1" d="m1.69,72.66c0-.22.11-.33.33-.33h1.03c.24,0,.36.11.36.33v18.83c0,.24-.12.36-.36.36h-1.03c-.22,0-.33-.12-.33-.36v-18.83Z"/>
        <path class="cls-1" d="m20.82,91.51c0,.22-.11.33-.33.33h-.95c-.22,0-.33-.11-.33-.33v-9c0-2.51-1.27-3.76-3.82-3.76-1.41,0-2.55.41-3.42,1.23-.87.82-1.31,1.88-1.31,3.18v8.35c0,.22-.11.33-.33.33h-.97c-.2,0-.31-.11-.31-.33v-13.59c0-.24.1-.36.31-.36h.95c.22,0,.33.11.33.33l.03,2.17c.89-1.89,2.59-2.84,5.1-2.84,1.67,0,2.93.45,3.79,1.35.85.9,1.28,2.15,1.28,3.75v9.19Z"/>
        <path class="cls-1" d="m29.59,92.12c-1.78,0-3.31-.27-4.6-.81-.2-.09-.29-.2-.25-.33l.28-.81c.07-.22.2-.29.39-.2,1.21.48,2.56.72,4.07.72,1.28,0,2.23-.2,2.84-.58.61-.39.92-1.01.92-1.87,0-.43-.08-.8-.25-1.11-.17-.32-.47-.6-.91-.86-.44-.26-.83-.46-1.17-.6-.34-.14-.89-.35-1.63-.63-.09-.04-.31-.12-.66-.24-.34-.12-.57-.2-.68-.25-.11-.05-.31-.13-.6-.25s-.49-.22-.6-.29l-.5-.33c-.22-.15-.38-.28-.47-.4-.09-.12-.21-.27-.36-.46-.15-.19-.25-.37-.32-.56-.06-.19-.12-.4-.17-.65s-.07-.52-.07-.79c0-2.39,1.61-3.59,4.82-3.59,1.69,0,3.12.27,4.29.81.19.09.25.21.2.36l-.25.75c-.06.19-.19.25-.39.2-1.15-.46-2.38-.7-3.68-.7-1.19,0-2.05.17-2.59.52-.54.34-.81.9-.81,1.66,0,.33.07.64.21.92.14.28.29.5.45.67.16.17.44.35.85.56.41.2.74.35.99.45.25.09.68.24,1.29.45.72.26,1.32.5,1.78.72s.94.51,1.42.85c.48.34.84.75,1.07,1.21.23.46.35,1,.35,1.62,0,2.58-1.76,3.87-5.26,3.87Z"/>
        <path class="cls-1" d="m38.81,77.92c0-.24.11-.36.33-.36h.95c.22,0,.33.12.33.36v8.77c0,2.62,1.25,3.93,3.76,3.93,1.35,0,2.46-.4,3.33-1.2.86-.8,1.29-1.85,1.29-3.15v-8.35c0-.24.11-.36.33-.36h.97c.2,0,.31.12.31.36v13.59c0,.22-.1.33-.31.33h-.97c-.22,0-.33-.11-.33-.33v-2.2c-.33.76-.9,1.42-1.7,1.98-.8.56-1.88.84-3.26.84-1.69,0-2.95-.45-3.79-1.36-.83-.91-1.25-2.18-1.25-3.82v-9.02Z"/>
        <path class="cls-1" d="m66.65,91.51c0,.22-.11.33-.33.33h-.95c-.22,0-.33-.11-.33-.33v-9.13c0-2.41-1.13-3.62-3.4-3.62-1.32,0-2.39.39-3.2,1.18-.82.79-1.23,1.81-1.23,3.08v8.49c0,.22-.11.33-.33.33h-.95c-.24,0-.36-.11-.36-.33v-13.59c0-.24.12-.36.36-.36h.95c.22,0,.33.11.33.33v2.14c.26-.74.79-1.4,1.6-1.96.81-.57,1.86-.85,3.16-.85,2.38,0,3.83.97,4.35,2.92.85-1.95,2.55-2.92,5.1-2.92,1.54,0,2.71.45,3.5,1.34s1.18,2.11,1.18,3.65v9.3c0,.22-.11.33-.33.33h-.95c-.22,0-.33-.11-.33-.33v-9.11c0-2.43-1.14-3.65-3.43-3.65-1.28,0-2.34.38-3.16,1.14-.83.76-1.24,1.73-1.24,2.9v8.72Z"/>
        <path class="cls-1" d="m82.06,90.17c-1.16-1.3-1.74-3.13-1.74-5.49s.58-4.21,1.74-5.51c1.16-1.3,2.78-1.95,4.86-1.95s3.7.65,4.87,1.95c1.17,1.3,1.75,3.14,1.75,5.51s-.58,4.19-1.75,5.49c-1.17,1.3-2.79,1.95-4.87,1.95s-3.7-.65-4.86-1.95Zm8.54-1.02c.85-1.01,1.28-2.5,1.28-4.47s-.43-3.46-1.28-4.48c-.85-1.02-2.08-1.53-3.68-1.53s-2.82.51-3.66,1.53c-.84,1.02-1.27,2.52-1.27,4.48s.42,3.46,1.27,4.47c.85,1.01,2.07,1.52,3.66,1.52s2.82-.51,3.68-1.52Z"/>
        <path class="cls-1" d="m101.65,92.12c-1.78,0-3.31-.27-4.6-.81-.2-.09-.29-.2-.25-.33l.28-.81c.07-.22.2-.29.39-.2,1.21.48,2.56.72,4.07.72,1.28,0,2.23-.2,2.84-.58.61-.39.92-1.01.92-1.87,0-.43-.08-.8-.25-1.11s-.47-.6-.91-.86c-.44-.26-.83-.46-1.17-.6-.34-.14-.89-.35-1.63-.63-.09-.04-.31-.12-.66-.24-.34-.12-.57-.2-.68-.25-.11-.05-.31-.13-.6-.25s-.49-.22-.6-.29l-.5-.33c-.22-.15-.38-.28-.47-.4-.09-.12-.21-.27-.36-.46-.15-.19-.25-.37-.32-.56-.06-.19-.12-.4-.17-.65s-.07-.52-.07-.79c0-2.39,1.61-3.59,4.82-3.59,1.69,0,3.12.27,4.29.81.19.09.25.21.2.36l-.25.75c-.06.19-.19.25-.39.2-1.15-.46-2.38-.7-3.68-.7-1.19,0-2.05.17-2.59.52-.54.34-.81.9-.81,1.66,0,.33.07.64.21.92.14.28.29.5.45.67.16.17.44.35.85.56.41.2.74.35.99.45.25.09.68.24,1.29.45.72.26,1.32.5,1.78.72s.94.51,1.42.85c.48.34.84.75,1.07,1.21s.35,1,.35,1.62c0,2.58-1.76,3.87-5.26,3.87Z"/>
        <path class="cls-1" d="m127.57,72.32c.22,0,.37.12.45.36l7.21,18.8c.08.24-.02.36-.28.36h-1.14c-.19,0-.33-.1-.42-.31l-1.98-5.21h-8.97l-2.01,5.21c-.09.2-.22.31-.39.31h-1.17c-.24,0-.33-.12-.25-.36l7.19-18.8c.11-.24.27-.36.47-.36h1.28Zm3.29,12.42l-3.9-10.58h-.06l-3.93,10.58h7.88Z"/>
        <path class="cls-1" d="m150.26,89.84c0,1.75-.54,3.08-1.63,4.01-1.09.93-2.59,1.39-4.5,1.39s-3.5-.3-4.76-.89c-.17-.11-.23-.22-.2-.33l.31-.81c.06-.22.19-.3.39-.22,1.26.54,2.67.81,4.23.81,1.43,0,2.54-.34,3.34-1.03s1.2-1.7,1.2-3.04v-1.98c-.37.91-.99,1.62-1.85,2.13-.86.51-1.86.77-2.99.77-1.8,0-3.23-.57-4.3-1.7-1.07-1.13-1.6-2.79-1.6-4.99s.52-3.86,1.57-5.01c1.05-1.15,2.47-1.73,4.27-1.73,1.11,0,2.12.25,3.02.75.9.5,1.53,1.18,1.88,2.03v-2.12c0-.22.12-.33.36-.33h.92c.22,0,.33.12.33.36v11.92Zm-2.83-9.9c-.81-.86-1.94-1.3-3.38-1.3-3.01,0-4.51,1.77-4.51,5.32s1.5,5.29,4.51,5.29c1.43,0,2.55-.48,3.37-1.43.82-.96,1.23-2.31,1.23-4.05s-.4-2.97-1.21-3.83Z"/>
        <path class="cls-1" d="m156.72,77.56c.22,0,.33.11.33.33v3.06c.3-.84.87-1.62,1.71-2.35.85-.73,1.89-1.1,3.13-1.1.19,0,.28.08.28.25v1.2c0,.2-.1.31-.31.31-.02,0-.08,0-.19-.03-.11-.02-.22-.03-.33-.03-1.15,0-2.15.55-3.01,1.66-.85,1.1-1.28,2.34-1.28,3.72v6.93c0,.22-.11.33-.33.33h-.95c-.24,0-.36-.11-.36-.33v-13.59c0-.24.12-.36.36-.36h.95Z"/>
        <path class="cls-1" d="m167.63,91.51c0,.22-.11.33-.33.33h-.95c-.22,0-.33-.11-.33-.33v-13.59c0-.24.11-.36.33-.36h.95c.22,0,.33.12.33.36v13.59Zm.31-18.8c.13-.19.32-.28.56-.28h1.45c.13,0,.21.05.24.15.03.1,0,.19-.1.26l-2.59,2.48c-.19.15-.36.22-.53.22h-.56c-.11,0-.19-.04-.22-.11-.04-.07-.03-.15.03-.22l1.73-2.51Z"/>
        <path class="cls-1" d="m173.81,79.17c1.19-1.3,2.8-1.95,4.85-1.95,1.6,0,2.9.29,3.9.86.22.13.3.27.22.42l-.33.78c-.07.22-.23.28-.47.17-.91-.48-1.96-.72-3.15-.72-1.63,0-2.9.5-3.79,1.5-.89,1-1.34,2.48-1.34,4.43s.45,3.44,1.34,4.46c.89,1.02,2.13,1.53,3.7,1.53,1.32,0,2.46-.28,3.42-.84.2-.09.34-.04.42.17l.33.81c.06.15-.03.28-.25.39-1.06.63-2.36.95-3.9.95-2.08,0-3.72-.65-4.93-1.96-1.21-1.31-1.81-3.14-1.81-5.5s.59-4.19,1.78-5.49Z"/>
        <path class="cls-1" d="m187.55,90.17c-1.16-1.3-1.74-3.13-1.74-5.49s.58-4.21,1.74-5.51c1.16-1.3,2.78-1.95,4.86-1.95s3.7.65,4.87,1.95c1.17,1.3,1.75,3.14,1.75,5.51s-.58,4.19-1.75,5.49c-1.17,1.3-2.79,1.95-4.87,1.95s-3.7-.65-4.86-1.95Zm8.54-1.02c.85-1.01,1.28-2.5,1.28-4.47s-.43-3.46-1.28-4.48c-.85-1.02-2.08-1.53-3.68-1.53s-2.82.51-3.66,1.53c-.84,1.02-1.27,2.52-1.27,4.48s.42,3.46,1.27,4.47c.85,1.01,2.07,1.52,3.66,1.52s2.82-.51,3.68-1.52Z"/>
        <path class="cls-1" d="m205.08,91.51c0,.22-.11.33-.33.33h-.97c-.2,0-.31-.11-.31-.33v-18.88c0-.2.1-.31.31-.31h.97c.22,0,.33.1.33.31v18.88Z"/>
        <path class="cls-1" d="m221.01,91.51c0,.22-.11.33-.33.33h-.89c-.2,0-.31-.11-.31-.33v-2.31c-.95,1.93-2.78,2.9-5.51,2.9-1.52,0-2.7-.36-3.54-1.09-.84-.72-1.25-1.7-1.25-2.92,0-.65.11-1.22.33-1.71s.57-.91,1.03-1.24c.46-.33.97-.61,1.52-.82.55-.21,1.24-.39,2.09-.52.85-.13,1.66-.22,2.45-.28s1.73-.09,2.83-.11v-1.09c0-1.26-.3-2.18-.91-2.76-.6-.58-1.61-.86-3.02-.86-1.54,0-3.06.32-4.57.95-.22.09-.36.03-.42-.2l-.25-.81c-.06-.17,0-.3.19-.39,1.58-.69,3.3-1.03,5.15-1.03s3.27.42,4.12,1.25c.85.84,1.28,2.1,1.28,3.79v9.25Zm-1.59-6.8c-1,.04-1.78.07-2.34.1-.56.03-1.23.08-2,.17-.78.08-1.38.2-1.81.35s-.86.34-1.29.57c-.44.23-.75.52-.93.88-.19.35-.28.77-.28,1.25,0,.8.29,1.45.88,1.95.58.5,1.44.75,2.58.75,1.65,0,2.93-.42,3.84-1.25.91-.84,1.36-1.88,1.36-3.15v-1.62Z"/>
        <path class="cls-1" d="m229.75,92.12c-1.78,0-3.31-.27-4.6-.81-.2-.09-.29-.2-.25-.33l.28-.81c.07-.22.2-.29.39-.2,1.21.48,2.56.72,4.07.72,1.28,0,2.23-.2,2.84-.58.61-.39.92-1.01.92-1.87,0-.43-.08-.8-.25-1.11s-.47-.6-.91-.86c-.44-.26-.83-.46-1.17-.6-.34-.14-.89-.35-1.63-.63-.09-.04-.31-.12-.66-.24-.34-.12-.57-.2-.68-.25-.11-.05-.31-.13-.6-.25s-.49-.22-.6-.29l-.5-.33c-.22-.15-.38-.28-.47-.4-.09-.12-.21-.27-.36-.46-.15-.19-.25-.37-.32-.56-.06-.19-.12-.4-.17-.65s-.07-.52-.07-.79c0-2.39,1.61-3.59,4.82-3.59,1.69,0,3.12.27,4.29.81.19.09.25.21.2.36l-.25.75c-.06.19-.19.25-.39.2-1.15-.46-2.38-.7-3.68-.7-1.19,0-2.05.17-2.59.52-.54.34-.81.9-.81,1.66,0,.33.07.64.21.92.14.28.29.5.45.67.16.17.44.35.85.56.41.2.74.35.99.45.25.09.68.24,1.29.45.72.26,1.32.5,1.78.72.46.22.94.51,1.42.85s.84.75,1.07,1.21c.23.46.35,1,.35,1.62,0,2.58-1.76,3.87-5.26,3.87Z"/>
      </g>
      <path class="cls-2" d="m385.8,41.14c-.25,7.4-2.38,13.13-6.45,17.14-4.33,4.27-10.25,6.41-17.77,6.41-2.56,0-4.92-.27-7.11-.76-.07.16-.14.33-.21.49-.99,2.36-1.93,4.74-2.82,7.13-.33.89-.66,1.8-.98,2.72-.1.28-.36.46-.65.46h-3.8c-.48,0-.81-.47-.66-.91.38-1.09.77-2.19,1.16-3.25.88-2.39,1.82-4.77,2.82-7.13.15-.35.31-.7.46-1.06h0c1.86-4.36,3.9-8.65,6.17-12.82,2.47-4.49,5.19-8.86,8.38-12.89,3.04-3.83,6.51-7.4,10.79-10.07.1-.06.03-.21-.08-.18-4.85,1.49-9.41,4.19-13.57,7.3-4.37,3.27-8.38,7.03-12.15,10.99-2.96,3.13-5.78,6.39-8.47,9.76-2.31-3.88-3.48-8.79-3.48-14.75,0-8.18,2.15-14.41,6.45-18.68,4.3-4.27,10.21-6.41,17.73-6.41h24.25v24.38l-.03,2.14Z"/>
      <path class="cls-2" d="m392.71,49.34c-.27-.34-.66-.54-1.1-.54h-1.35c-.62,0-1.17.43-1.33,1.04-1.24,4.77-3.47,8.78-6.65,11.91-3.01,2.97-6.7,5.11-10.98,6.35-.6.17-1,.7-1,1.31v1.05c0,.44.2.84.55,1.1.24.18.53.28.82.28.12,0,.24-.02.35-.05,5.17-1.4,9.62-3.92,13.25-7.5,3.69-3.63,6.27-8.28,7.68-13.8.1-.41.01-.83-.25-1.16Z"/>
    </g>
  </g>
</svg>