<?xml version="1.0" encoding="UTF-8"?>
<svg id="Layer_2" data-name="Layer 2" xmlns="http://www.w3.org/2000/svg" viewBox="0 0 78.56 100">
  <defs>
    <style>
      .cls-1 {
        fill: #bcbec0;
      }
    </style>
  </defs>
  <g id="Layer_1-2" data-name="Layer 1">
    <g>
      <path class="cls-1" d="m54.08,46.04v-10.74c0-.1-.01-.2-.03-.29.02-.17.03-.34.03-.51V9.88s0-.04,0-.07c0-.07,0-.14,0-.21,0-2.89-2.93-5.35-8.48-7.13-4.98-1.59-11.57-2.47-18.56-2.47S13.46.88,8.48,2.47C2.93,4.25,0,6.71,0,9.6c0,.07,0,.14,0,.21,0,.02,0,.04,0,.07v24.62c0,.17.01.34.03.51-.02.09-.03.19-.03.29v36.38c0,6.08,12.87,9.39,25.79,9.59,3.52,10.85,13.72,18.73,25.73,18.73,14.91,0,27.04-12.13,27.04-27.04,0-14.05-10.77-25.63-24.48-26.92Zm-28.86,20.67c-13.92-.32-22.44-4.14-22.44-6.8v-8.39c1.39,1,3.3,1.9,5.7,2.67,4.98,1.59,11.57,2.47,18.56,2.47.99,0,1.98-.02,2.96-.05-2.25,2.95-3.9,6.38-4.79,10.1Zm1.83-25.4c-15.03,0-24.26-3.98-24.26-6.83v-8.39c1.39,1,3.3,1.9,5.7,2.67,4.69,1.5,10.82,2.37,17.37,2.46,0,0,0,0,0,0,.39,0,.79,0,1.19,0s.79,0,1.19,0c0,0,0,0,0,0,6.54-.09,12.67-.96,17.37-2.46,2.4-.77,4.31-1.66,5.7-2.67v8.39c0,2.85-9.23,6.83-24.26,6.83Zm24.26-19.68c0,2.85-9.23,6.83-24.26,6.83S2.78,24.49,2.78,21.64v-7.58c1.39,1,3.3,1.9,5.7,2.67,4.98,1.59,11.57,2.47,18.56,2.47s13.58-.88,18.56-2.47c2.4-.77,4.31-1.67,5.7-2.67v7.58Zm-18.73,32.05c-1.81.13-3.66.2-5.53.2-15.03,0-24.26-3.98-24.26-6.83v-8.11c1.39,1,3.3,1.9,5.7,2.67,4.98,1.59,11.57,2.47,18.56,2.47s13.58-.88,18.56-2.47c2.4-.77,4.31-1.67,5.7-2.67v6.97c-7.29.06-13.9,3.01-18.73,7.77ZM27.04,2.78c15.03,0,24.26,3.98,24.26,6.83s-9.23,6.83-24.26,6.83S2.78,12.45,2.78,9.6,12.01,2.78,27.04,2.78ZM2.78,71.68v-7.32c4.32,3.11,13.07,4.87,21.93,5.12-.15,1.14-.22,2.3-.22,3.48,0,1.89.2,3.74.57,5.52-13.84-.34-22.27-4.11-22.27-6.8Zm48.75,25.54c-13.38,0-24.26-10.88-24.26-24.26s10.88-24.26,24.26-24.26,24.26,10.88,24.26,24.26-10.88,24.26-24.26,24.26Z"/>
      <path class="cls-1" d="m59.14,65.36c0,.76.62,1.38,1.39,1.38h0c.77,0,1.39-.63,1.38-1.39-.02-4.35-3.66-7.48-9.01-7.94v-3.61c0-.77-.62-1.39-1.39-1.39s-1.39.62-1.39,1.39v3.61c-5.36.46-9,3.6-9,7.94-.02,4.3,3.47,7.66,9,8.78v11.59c-3.2-.37-6.22-2.01-6.23-5.16,0-.76-.62-1.38-1.39-1.38h0c-.77,0-1.39.63-1.38,1.39.02,4.35,3.66,7.48,9.01,7.94v.82s0,.07.01.1v2.69c0,.77.62,1.39,1.39,1.39s1.39-.62,1.39-1.39v-3.46s0-.07-.01-.1v-.04c2.32-.2,4.35-.9,5.93-2.07,1.98-1.46,3.07-3.55,3.07-5.87.02-4.3-3.47-7.66-9.01-8.78v-11.59c3.2.36,6.22,2.01,6.24,5.16Zm-15.23,0c0-2.75,2.5-4.76,6.22-5.16v11.09c-3.89-.93-6.23-3.12-6.22-5.93Zm15.22,15.21c0,1.83-1.06,2.99-1.95,3.65-1.1.81-2.59,1.32-4.28,1.51v-11.09c3.89.93,6.24,3.12,6.23,5.94Z"/>
    </g>
  </g>
</svg>