<?xml version="1.0" encoding="UTF-8"?>
<svg id="Layer_2" data-name="Layer 2" xmlns="http://www.w3.org/2000/svg" viewBox="0 0 79.27 100.7">
  <defs>
    <style>
      .cls-1, .cls-2 {
        fill: #bcbec0;
      }

      .cls-3 {
        fill: none;
        stroke: #bcbec0;
        stroke-linecap: round;
        stroke-linejoin: round;
        stroke-width: 1.6px;
      }

      .cls-2 {
        stroke: #0c0c0c;
        stroke-miterlimit: 10;
        stroke-width: .7px;
      }
    </style>
  </defs>
  <g id="Layer_1-2" data-name="Layer 1">
    <g>
      <path class="cls-2" d="m78.89,94.27c-.22-2.05-1.32-3.94-3.16-5.46,5.8-12.33.47-40.19-1.22-48.11,1.35-1.11,2.46-2.46,3.24-3.99,1.36-2.7,1.54-5.62.53-8.2l-3.46-10.71c-.47-3.43-6.98-5.81-19.39-7.06l-10.93-8.69c-2.87-2.28-6.86-2.26-9.71.06l-10.66,8.67c-17.88,1.86-19.01,5.56-19.08,7.13l-2.68,8.59-.73,1.98c-1.03,2.61-.84,5.54.52,8.23.67,1.33,1.6,2.51,2.7,3.53-1.32,6.04-7.35,35.76-1.4,48.71-1.77,1.4-2.86,3.29-3.06,5.17-.14.71,0,1.83.83,2.82,1.33,1.6,3.89,2.36,7.85,2.29,3.29-.07,7.11.18,11.53.45,5.08.31,10.83.67,17.29.67h3.46c7.11,0,12.85-.37,17.91-.69,4.12-.26,7.69-.48,10.9-.43,3.93.03,6.5-.68,7.84-2.27.83-.99.99-2.11.87-2.68Zm-7.69-76.07c-.35.37-1.44,1.12-3.92,1.95l-6.44-5.12c6.93,1.11,9.71,2.52,10.37,3.17ZM37.04,4.87c1.53-1.25,3.68-1.26,5.23-.03l20.71,16.46c-6.18,1.39-14.46,2.2-23.03,2.2-9.78,0-17.68-1-23.11-2.2L37.04,4.87Zm-18.19,10.2l-6.29,5.12c-2.21-.71-3.56-1.4-3.9-1.93.53-.62,3.2-2.04,10.2-3.19Zm-13.88,14.67l.78-2.1,1.85-5.91c6.07,3.84,21.68,5.35,32.36,5.35s20.87-1.21,27.47-3.23c2.08-.62,3.69-1.31,4.89-2.07l1.86,5.95.76,2.05c.65,1.65.52,3.54-.38,5.32-1.19,2.36-3.51,4.15-6.37,4.92-18.47,4.94-38,4.94-56.48,0-2.86-.76-5.18-2.55-6.37-4.92-.9-1.78-1.03-3.66-.37-5.35Zm65.26,65.91c-3.36-.05-6.99.17-11.19.44-5.01.32-10.68.68-17.68.68h-3.46c-6.35,0-12.05-.35-17.07-.66-4.5-.28-8.38-.51-11.81-.46-3.8.06-4.94-.78-5.09-1.06.13-1.04.76-2.08,1.72-2.84,1.38-1.07,1.84-2.91,1.11-4.47-5.11-10.87-.38-36.79,1.28-44.86.86.43,1.78.77,2.74,1.03,9.54,2.55,19.35,3.83,29.16,3.83s19.62-1.28,29.16-3.83c.75-.2,1.47-.47,2.17-.78,1.69,8.3,6.29,33.84,1.22,44.61-.72,1.55-.28,3.38,1.09,4.47.94.73,1.56,1.71,1.74,2.83-.14.28-1.27,1.11-5.1,1.06Z"/>
      <path class="cls-1" d="m27.55,20.07c.74,0,1.34-.6,1.34-1.34s-.6-1.34-1.34-1.34-1.34.6-1.34,1.34.6,1.34,1.34,1.34Z"/>
      <path class="cls-1" d="m31.91,19.76c0,.74.6,1.34,1.34,1.34s1.34-.6,1.34-1.34-.6-1.34-1.34-1.34-1.34.6-1.34,1.34Z"/>
      <path class="cls-1" d="m32.24,15.8c.74,0,1.34-.6,1.34-1.34s-.6-1.34-1.34-1.34-1.34.6-1.34,1.34.6,1.34,1.34,1.34Z"/>
      <path class="cls-1" d="m49.33,20.07c.74,0,1.34-.6,1.34-1.34s-.6-1.34-1.34-1.34-1.34.6-1.34,1.34.6,1.34,1.34,1.34Z"/>
      <path class="cls-1" d="m40.95,9.14c.74,0,1.34-.6,1.34-1.34s-.6-1.34-1.34-1.34-1.34.6-1.34,1.34.6,1.34,1.34,1.34Z"/>
      <path class="cls-1" d="m45.47,13.48c.74,0,1.34-.6,1.34-1.34s-.6-1.34-1.34-1.34-1.34.6-1.34,1.34.6,1.34,1.34,1.34Z"/>
      <path class="cls-1" d="m54.69,20.07c.74,0,1.34-.6,1.34-1.34s-.6-1.34-1.34-1.34-1.34.6-1.34,1.34.6,1.34,1.34,1.34Z"/>
      <g>
        <path class="cls-3" d="m27.47,76.92c-2.91-2.02-3.72-5.89-2.03-8.35,1.04-1.52,2.55-2.32,4.13-2.98,1.57-.66,3.21-1.18,4.52-2.13,1.35-.98,2.38-2.4,3.51-3.73,1.13-1.32,2.37-2.55,4.13-3.12,2.84-.92,6.34,1,7.43,4.38.99,3.07,0,7.35-5.26,11.82"/>
        <path class="cls-3" d="m46.14,60.17c.97,1.34,1.26,3.04.45,5.31-.39,1.11-1.06,2.28-2.07,3.49"/>
        <path class="cls-3" d="m36.85,61.35c.82,1.32-.04,3.34-1.93,4.52-1.89,1.18-4.09,1.07-4.91-.25"/>
        <path class="cls-3" d="m42.15,72.94c1.61.42,3.37.31,5.11.35,1.74.04,3.47.22,5.03,1.22,2.51,1.61,3.25,5.53,1.33,8.52-1.93,2.99-6.52,5.06-14.67,2.95-8.08-2.09-11.12-6.08-11.41-9.62-.28-3.53,2.19-6.61,5.17-6.86,1.84-.16,3.41.5,4.92,1.3,1.51.8,2.95,1.73,4.52,2.14h0Z"/>
        <path class="cls-3" d="m52.5,77.74c.24,2.68-.65,4.94-3.98,6.13-2.14.77-5.13.9-9.1-.13"/>
        <path class="cls-3" d="m45.53,73.73c-.5,1.47-2.61,2.09-4.72,1.38-2.11-.71-3.42-2.48-2.93-3.95"/>
      </g>
    </g>
  </g>
</svg>