<?xml version="1.0" encoding="UTF-8"?>
<svg id="Layer_2" data-name="Layer 2" xmlns="http://www.w3.org/2000/svg" viewBox="0 0 79.27 100.7">
  <defs>
    <style>
      .cls-1, .cls-2 {
        fill: #bcbec0;
      }

      .cls-3 {
        fill: none;
        stroke: #bcbec0;
        stroke-linecap: round;
        stroke-linejoin: round;
        stroke-width: 1.14px;
      }

      .cls-2 {
        stroke: #0c0c0c;
        stroke-miterlimit: 10;
        stroke-width: .7px;
      }
    </style>
  </defs>
  <g id="Layer_1-2" data-name="Layer 1">
    <g>
      <path class="cls-2" d="m78.89,94.27c-.22-2.05-1.32-3.94-3.16-5.46,5.8-12.33.47-40.19-1.22-48.11,1.35-1.11,2.46-2.46,3.24-3.99,1.36-2.7,1.54-5.62.53-8.2l-3.46-10.71c-.47-3.43-6.98-5.81-19.39-7.06l-10.93-8.69c-2.87-2.28-6.86-2.26-9.71.06l-10.66,8.67c-17.88,1.86-19.01,5.56-19.08,7.13l-2.68,8.59-.73,1.98c-1.03,2.61-.84,5.54.52,8.23.67,1.33,1.6,2.51,2.7,3.53-1.32,6.04-7.35,35.76-1.4,48.71-1.77,1.4-2.86,3.29-3.06,5.17-.14.71,0,1.83.83,2.82,1.33,1.6,3.89,2.36,7.85,2.29,3.29-.07,7.11.18,11.53.45,5.08.31,10.83.67,17.29.67h3.46c7.11,0,12.85-.37,17.91-.69,4.12-.26,7.69-.48,10.9-.43,3.93.03,6.5-.68,7.84-2.27.83-.99.99-2.11.87-2.68Zm-7.69-76.07c-.35.37-1.44,1.12-3.92,1.95l-6.44-5.12c6.93,1.11,9.71,2.52,10.37,3.17ZM37.04,4.87c1.53-1.25,3.68-1.26,5.23-.03l20.71,16.46c-6.18,1.39-14.46,2.2-23.03,2.2-9.78,0-17.68-1-23.11-2.2L37.04,4.87Zm-18.19,10.2l-6.29,5.12c-2.21-.71-3.56-1.4-3.9-1.93.53-.62,3.2-2.04,10.2-3.19Zm-13.88,14.67l.78-2.1,1.85-5.91c6.07,3.84,21.68,5.35,32.36,5.35s20.87-1.21,27.47-3.23c2.08-.62,3.69-1.31,4.89-2.07l1.86,5.95.76,2.05c.65,1.65.52,3.54-.38,5.32-1.19,2.36-3.51,4.15-6.37,4.92-18.47,4.94-38,4.94-56.48,0-2.86-.76-5.18-2.55-6.37-4.92-.9-1.78-1.03-3.66-.37-5.35Zm65.26,65.91c-3.36-.05-6.99.17-11.19.44-5.01.32-10.68.68-17.68.68h-3.46c-6.35,0-12.05-.35-17.07-.66-4.5-.28-8.38-.51-11.81-.46-3.8.06-4.94-.78-5.09-1.06.13-1.04.76-2.08,1.72-2.84,1.38-1.07,1.84-2.91,1.11-4.47-5.11-10.87-.38-36.79,1.28-44.86.86.43,1.78.77,2.74,1.03,9.54,2.55,19.35,3.83,29.16,3.83s19.62-1.28,29.16-3.83c.75-.2,1.47-.47,2.17-.78,1.69,8.3,6.29,33.84,1.22,44.61-.72,1.55-.28,3.38,1.09,4.47.94.73,1.56,1.71,1.74,2.83-.14.28-1.27,1.11-5.1,1.06Z"/>
      <path class="cls-1" d="m27.55,20.07c.74,0,1.34-.6,1.34-1.34s-.6-1.34-1.34-1.34-1.34.6-1.34,1.34.6,1.34,1.34,1.34Z"/>
      <path class="cls-1" d="m31.91,19.76c0,.74.6,1.34,1.34,1.34s1.34-.6,1.34-1.34-.6-1.34-1.34-1.34-1.34.6-1.34,1.34Z"/>
      <path class="cls-1" d="m32.24,15.8c.74,0,1.34-.6,1.34-1.34s-.6-1.34-1.34-1.34-1.34.6-1.34,1.34.6,1.34,1.34,1.34Z"/>
      <path class="cls-1" d="m49.33,20.07c.74,0,1.34-.6,1.34-1.34s-.6-1.34-1.34-1.34-1.34.6-1.34,1.34.6,1.34,1.34,1.34Z"/>
      <path class="cls-1" d="m40.95,9.14c.74,0,1.34-.6,1.34-1.34s-.6-1.34-1.34-1.34-1.34.6-1.34,1.34.6,1.34,1.34,1.34Z"/>
      <path class="cls-1" d="m45.47,13.48c.74,0,1.34-.6,1.34-1.34s-.6-1.34-1.34-1.34-1.34.6-1.34,1.34.6,1.34,1.34,1.34Z"/>
      <path class="cls-1" d="m54.69,20.07c.74,0,1.34-.6,1.34-1.34s-.6-1.34-1.34-1.34-1.34.6-1.34,1.34.6,1.34,1.34,1.34Z"/>
      <g>
        <path class="cls-3" d="m33.43,76.52c2.17-.96,4.82-1.56,6.4-2.5,1.4-.84,4.67.16,6.28.89,3.71,1.66,3.55,1.28.73,1.7-2.26.33-5.08,1.94-6.2,2.9-2.06,1.76-6.67,8.8-11.03,5.16-.73-.61-1.11-.98-1.24-1.21"/>
        <path class="cls-3" d="m30.62,66.87c-.11,1.79-.34,4.82-1,5.67-1.59,2.05-4.08,2.6-4.13,5.37-.03,1.59.48,3.08,1.45,3.86,2.72,2.18,5.48-2.26,5.93-3.84.56-1.95,2.11-3.74,2.01-5.63-.07-1.31-2.33-3.65-2.94-5.5-1.06-3.19-1.24-1.33-1.32.07h0Z"/>
        <path class="cls-3" d="m44.69,60.25c-.41-.41-.28-1.01.08-1.44l.77-.89c.37-.42,1.06-.39,1.46.02l.69.69c.41.41.52,1.13.1,1.5"/>
        <path class="cls-3" d="m41.7,62.36c-.4-.4-.42-.98.01-1.47l.91-1.02c.43-.49,1.17-.51,1.58-.1l.97.97c.4.4.38,1.14-.1,1.58"/>
        <path class="cls-3" d="m38.98,64.94c-.46-.46-.43-1.19,0-1.68l.9-1.03c.43-.49,1.22-.46,1.68,0l1.1,1.1c.46.46.29,1.28-.2,1.71"/>
        <path class="cls-3" d="m36.31,67.61c-.46-.46-.43-1.19,0-1.68l.9-1.03c.43-.49,1.22-.46,1.68,0l1.1,1.1c.46.46.35,1.22-.14,1.65"/>
        <path class="cls-3" d="m33.23,68.91l1.31-1.35c.46-.47,1.22-.46,1.68,0l1.1,1.1c.46.46.46,1.22,0,1.68l-2.31,2.29"/>
        <path class="cls-3" d="m45.51,62l2.29-1.86c.53-.43,1.28-.48,1.76,0l.62.62c.49.49.44,1.24,0,1.76l-1.54,1.86"/>
        <path class="cls-3" d="m42.84,64.49l2.33-2.27c.48-.47,1.26-.48,1.74,0l1.14,1.14c.48.48.5,1.28,0,1.74l-2.53,2.29"/>
        <path class="cls-3" d="m40.36,67.14l2.1-2.11c.46-.46,1.22-.46,1.68,0l1.1,1.1c.46.46.48,1.24,0,1.68l-2.11,1.94"/>
        <path class="cls-3" d="m38.14,69.31l1.65-1.6c.47-.45,1.22-.46,1.68,0l1.1,1.1c.46.46.55,1.09.06,1.52l-1.84,1.62"/>
        <path class="cls-3" d="m37.32,70.35c.43-.49,1.24-.43,1.71.03l1.1,1.1c.65.65.7,1.06,0,1.68l-1.03.9c-.49.43-1.22.46-1.68,0l-.98-.98c-.46-.46-1.05-.59-1.58-.19"/>
        <path class="cls-3" d="m50.19,62.52c.38-.44,1.02-.63,1.44-.2l.72.72c.42.42.46,1.14.02,1.52l-.92.8c-.44.38-1.11.49-1.54.07"/>
        <path class="cls-3" d="m47.79,65.34c.43-.49,1.38-.67,1.78-.26l.97.97c.41.41.38,1.14-.1,1.58l-1.02.91c-.49.43-1.06.42-1.47.01"/>
        <path class="cls-3" d="m45.33,67.73c.43-.49,1.19-.6,1.65-.14l1.1,1.1c.46.46.49,1.25,0,1.68l-1.03.9c-.49.43-1.26.54-1.72.08"/>
        <path class="cls-3" d="m42.2,73.76c-1.17-.56-1.26-1.88-.78-2.32l1.22-1.11c.43-.49,1.22-.46,1.68,0l1.1,1.1c.46.46.54,1.32,0,1.68l-1.09.73"/>
        <path class="cls-3" d="m47.58,57.9l1.67-1.12c.46-.31,1.06-.38,1.46.02l.58.58c.41.41.4,1.05.02,1.46l-1.44,1.6"/>
        <path class="cls-3" d="m51.32,58.84c.36-.39,1.25-.25,1.64.13l.55.55c.39.39.33.95.02,1.39l-1.2,1.73"/>
      </g>
    </g>
  </g>
</svg>