<?xml version="1.0" encoding="UTF-8"?>
<svg id="Layer_2" data-name="Layer 2" xmlns="http://www.w3.org/2000/svg" viewBox="0 0 79.27 100.7">
  <defs>
    <style>
      .cls-1, .cls-2 {
        fill: #bcbec0;
      }

      .cls-3 {
        fill: none;
        stroke: #bcbec0;
        stroke-linecap: round;
        stroke-linejoin: round;
        stroke-width: 1.26px;
      }

      .cls-2 {
        stroke: #0c0c0c;
        stroke-miterlimit: 10;
        stroke-width: .7px;
      }
    </style>
  </defs>
  <g id="Layer_1-2" data-name="Layer 1">
    <g>
      <path class="cls-2" d="m78.89,94.27c-.22-2.05-1.32-3.94-3.16-5.46,5.8-12.33.47-40.19-1.22-48.11,1.35-1.11,2.46-2.46,3.24-3.99,1.36-2.7,1.54-5.62.53-8.2l-3.46-10.71c-.47-3.43-6.98-5.81-19.39-7.06l-10.93-8.69c-2.87-2.28-6.86-2.26-9.71.06l-10.66,8.67c-17.88,1.86-19.01,5.56-19.08,7.13l-2.68,8.59-.73,1.98c-1.03,2.61-.84,5.54.52,8.23.67,1.33,1.6,2.51,2.7,3.53-1.32,6.04-7.35,35.76-1.4,48.71-1.77,1.4-2.86,3.29-3.06,5.17-.14.71,0,1.83.83,2.82,1.33,1.6,3.89,2.36,7.85,2.29,3.29-.07,7.11.18,11.53.45,5.08.31,10.83.67,17.29.67h3.46c7.11,0,12.85-.37,17.91-.69,4.12-.26,7.69-.48,10.9-.43,3.93.03,6.5-.68,7.84-2.27.83-.99.99-2.11.87-2.68Zm-7.69-76.07c-.35.37-1.44,1.12-3.92,1.95l-6.44-5.12c6.93,1.11,9.71,2.52,10.37,3.17ZM37.04,4.87c1.53-1.25,3.68-1.26,5.23-.03l20.71,16.46c-6.18,1.39-14.46,2.2-23.03,2.2-9.78,0-17.68-1-23.11-2.2L37.04,4.87Zm-18.19,10.2l-6.29,5.12c-2.21-.71-3.56-1.4-3.9-1.93.53-.62,3.2-2.04,10.2-3.19Zm-13.88,14.67l.78-2.1,1.85-5.91c6.07,3.84,21.68,5.35,32.36,5.35s20.87-1.21,27.47-3.23c2.08-.62,3.69-1.31,4.89-2.07l1.86,5.95.76,2.05c.65,1.65.52,3.54-.38,5.32-1.19,2.36-3.51,4.15-6.37,4.92-18.47,4.94-38,4.94-56.48,0-2.86-.76-5.18-2.55-6.37-4.92-.9-1.78-1.03-3.66-.37-5.35Zm65.26,65.91c-3.36-.05-6.99.17-11.19.44-5.01.32-10.68.68-17.68.68h-3.46c-6.35,0-12.05-.35-17.07-.66-4.5-.28-8.38-.51-11.81-.46-3.8.06-4.94-.78-5.09-1.06.13-1.04.76-2.08,1.72-2.84,1.38-1.07,1.84-2.91,1.11-4.47-5.11-10.87-.38-36.79,1.28-44.86.86.43,1.78.77,2.74,1.03,9.54,2.55,19.35,3.83,29.16,3.83s19.62-1.28,29.16-3.83c.75-.2,1.47-.47,2.17-.78,1.69,8.3,6.29,33.84,1.22,44.61-.72,1.55-.28,3.38,1.09,4.47.94.73,1.56,1.71,1.74,2.83-.14.28-1.27,1.11-5.1,1.06Z"/>
      <path class="cls-1" d="m27.55,20.07c.74,0,1.34-.6,1.34-1.34s-.6-1.34-1.34-1.34-1.34.6-1.34,1.34.6,1.34,1.34,1.34Z"/>
      <path class="cls-1" d="m31.91,19.76c0,.74.6,1.34,1.34,1.34s1.34-.6,1.34-1.34-.6-1.34-1.34-1.34-1.34.6-1.34,1.34Z"/>
      <path class="cls-1" d="m32.24,15.8c.74,0,1.34-.6,1.34-1.34s-.6-1.34-1.34-1.34-1.34.6-1.34,1.34.6,1.34,1.34,1.34Z"/>
      <path class="cls-1" d="m49.33,20.07c.74,0,1.34-.6,1.34-1.34s-.6-1.34-1.34-1.34-1.34.6-1.34,1.34.6,1.34,1.34,1.34Z"/>
      <path class="cls-1" d="m40.95,9.14c.74,0,1.34-.6,1.34-1.34s-.6-1.34-1.34-1.34-1.34.6-1.34,1.34.6,1.34,1.34,1.34Z"/>
      <path class="cls-1" d="m45.47,13.48c.74,0,1.34-.6,1.34-1.34s-.6-1.34-1.34-1.34-1.34.6-1.34,1.34.6,1.34,1.34,1.34Z"/>
      <path class="cls-1" d="m54.69,20.07c.74,0,1.34-.6,1.34-1.34s-.6-1.34-1.34-1.34-1.34.6-1.34,1.34.6,1.34,1.34,1.34Z"/>
      <g>
        <path class="cls-3" d="m50,79.68c2.51.72,3.82,2.5,2.91,3.99-.9,1.49-3.67,2.11-6.18,1.39-2.51-.72-3.82-2.5-2.91-3.99.9-1.49,3.67-2.11,6.18-1.39h0Z"/>
        <path class="cls-3" d="m50.52,82.85c-.7.44-1.94.56-3.14.22-.61-.17-1.12-.43-1.49-.73"/>
        <path class="cls-3" d="m51.26,53.84l1.04,5.54c1.31,2.79,1.81,4.81.89,6.38-.59,1.01-1.67,2.1-2.72,2.87-.92.68-1.8,1.06-2.35,1.74-.47.58-1.19,1.28-1.33,2.62-.26,2.45-2.41,3.93-4.54,4.7-2.27.82-4.53.86-4.6,1.6-.11,1.3-1.17,2.7-2.41,3.73-6.47,5.4-11.82-.27-13.03-.05.8-.72,1.24-2.73,2.21-4.45,1.19-2.11,3.07-3.94,5.93-4.18,1.99-.16,2.2-.13,2.64-.56.67-.65.69-1.36.93-2.03.65-1.78,2.58-3.27,4.3-3.97.51-.21.98-.19,1.63-.76.43-.68.09-2.2,1.12-4.36.49-1.03,2.29-2.56,4.17-3.33,1.42-.58,2.88-.51,3.95-.75,1.4-.31,2.17-1.28,2.51-2.95"/>
        <path class="cls-3" d="m47.16,61.46c2.56-.49,4.53.51,4.4,2.25-.13,1.73-2.32,3.54-4.89,4.03-2.56.49-4.53-.51-4.4-2.25.13-1.73,2.32-3.54,4.89-4.03h0Z"/>
        <path class="cls-3" d="m30.97,76.67c2.56-.49,4.53.51,4.4,2.25-.13,1.73-2.32,3.54-4.89,4.03-2.56.49-4.53-.51-4.4-2.25.13-1.73,2.32-3.54,4.89-4.03h0Z"/>
        <path class="cls-3" d="m32.86,79.26c-.43.71-1.48,1.37-2.71,1.62-.62.12-1.19.12-1.65.02"/>
        <path class="cls-3" d="m40.29,69.61c2.5-.74,4.56.07,4.6,1.81.04,1.74-1.96,3.75-4.47,4.49-2.5.74-4.56-.07-4.6-1.81-.04-1.74,1.96-3.75,4.47-4.49h0Z"/>
        <path class="cls-3" d="m42.43,72c-.35.75-1.34,1.51-2.53,1.88-.61.18-1.17.24-1.64.18"/>
      </g>
    </g>
  </g>
</svg>