<?xml version="1.0" encoding="UTF-8"?>
<svg id="Layer_2" data-name="Layer 2" xmlns="http://www.w3.org/2000/svg" viewBox="0 0 79.27 100.7">
  <defs>
    <style>
      .cls-1, .cls-2, .cls-3 {
        fill: #bcbec0;
      }

      .cls-2 {
        stroke-width: .48px;
      }

      .cls-2, .cls-3 {
        stroke: #0c0c0c;
        stroke-miterlimit: 10;
      }

      .cls-3 {
        stroke-width: .7px;
      }
    </style>
  </defs>
  <g id="Layer_1-2" data-name="Layer 1">
    <g>
      <path class="cls-3" d="m78.89,94.27c-.22-2.05-1.32-3.94-3.16-5.46,5.8-12.33.47-40.19-1.22-48.11,1.35-1.11,2.46-2.46,3.24-3.99,1.36-2.7,1.54-5.62.53-8.2l-3.46-10.71c-.47-3.43-6.98-5.81-19.39-7.06l-10.93-8.69c-2.87-2.28-6.86-2.26-9.71.06l-10.66,8.67c-17.88,1.86-19.01,5.56-19.08,7.13l-2.68,8.59-.73,1.98c-1.03,2.61-.84,5.54.52,8.23.67,1.33,1.6,2.51,2.7,3.53-1.32,6.04-7.35,35.76-1.4,48.71-1.77,1.4-2.86,3.29-3.06,5.17-.14.71,0,1.83.83,2.82,1.33,1.6,3.89,2.36,7.85,2.29,3.29-.07,7.11.18,11.53.45,5.08.31,10.83.67,17.29.67h3.46c7.11,0,12.85-.37,17.91-.69,4.12-.26,7.69-.48,10.9-.43,3.93.03,6.5-.68,7.84-2.27.83-.99.99-2.11.87-2.68Zm-7.69-76.07c-.35.37-1.44,1.12-3.92,1.95l-6.44-5.12c6.93,1.11,9.71,2.52,10.37,3.17ZM37.04,4.87c1.53-1.25,3.68-1.26,5.23-.03l20.71,16.46c-6.18,1.39-14.46,2.2-23.03,2.2-9.78,0-17.68-1-23.11-2.2L37.04,4.87Zm-18.19,10.2l-6.29,5.12c-2.21-.71-3.56-1.4-3.9-1.93.53-.62,3.2-2.04,10.2-3.19Zm-13.88,14.67l.78-2.1,1.85-5.91c6.07,3.84,21.68,5.35,32.36,5.35s20.87-1.21,27.47-3.23c2.08-.62,3.69-1.31,4.89-2.07l1.86,5.95.76,2.05c.65,1.65.52,3.54-.38,5.32-1.19,2.36-3.51,4.15-6.37,4.92-18.47,4.94-38,4.94-56.48,0-2.86-.76-5.18-2.55-6.37-4.92-.9-1.78-1.03-3.66-.37-5.35Zm65.26,65.91c-3.36-.05-6.99.17-11.19.44-5.01.32-10.68.68-17.68.68h-3.46c-6.35,0-12.05-.35-17.07-.66-4.5-.28-8.38-.51-11.81-.46-3.8.06-4.94-.78-5.09-1.06.13-1.04.76-2.08,1.72-2.84,1.38-1.07,1.84-2.91,1.11-4.47-5.11-10.87-.38-36.79,1.28-44.86.86.43,1.78.77,2.74,1.03,9.54,2.55,19.35,3.83,29.16,3.83s19.62-1.28,29.16-3.83c.75-.2,1.47-.47,2.17-.78,1.69,8.3,6.29,33.84,1.22,44.61-.72,1.55-.28,3.38,1.09,4.47.94.73,1.56,1.71,1.74,2.83-.14.28-1.27,1.11-5.1,1.06Z"/>
      <path class="cls-1" d="m27.55,20.07c.74,0,1.34-.6,1.34-1.34s-.6-1.34-1.34-1.34-1.34.6-1.34,1.34.6,1.34,1.34,1.34Z"/>
      <path class="cls-1" d="m31.91,19.76c0,.74.6,1.34,1.34,1.34s1.34-.6,1.34-1.34-.6-1.34-1.34-1.34-1.34.6-1.34,1.34Z"/>
      <path class="cls-1" d="m32.24,15.8c.74,0,1.34-.6,1.34-1.34s-.6-1.34-1.34-1.34-1.34.6-1.34,1.34.6,1.34,1.34,1.34Z"/>
      <path class="cls-1" d="m49.33,20.07c.74,0,1.34-.6,1.34-1.34s-.6-1.34-1.34-1.34-1.34.6-1.34,1.34.6,1.34,1.34,1.34Z"/>
      <path class="cls-1" d="m40.95,9.14c.74,0,1.34-.6,1.34-1.34s-.6-1.34-1.34-1.34-1.34.6-1.34,1.34.6,1.34,1.34,1.34Z"/>
      <path class="cls-1" d="m45.47,13.48c.74,0,1.34-.6,1.34-1.34s-.6-1.34-1.34-1.34-1.34.6-1.34,1.34.6,1.34,1.34,1.34Z"/>
      <path class="cls-1" d="m54.69,20.07c.74,0,1.34-.6,1.34-1.34s-.6-1.34-1.34-1.34-1.34.6-1.34,1.34.6,1.34,1.34,1.34Z"/>
      <g>
        <path class="cls-2" d="m37.2,72.83c.34.34.88.37,1.26.08.11-.08,2.67-2.1,3.06-5.2.33-2.59-1.13-4.63-1.2-4.71-.15-.21-.39-.35-.64-.38-.26-.03-.52.04-.72.2-2.05,1.64-3.16,3.47-3.31,5.43-.2,2.63,1.46,4.48,1.53,4.56,0,.01.02.02.03.03Zm2.08-7.75c.25.61.47,1.46.35,2.39-.17,1.38-.98,2.52-1.59,3.21-.29-.56-.56-1.36-.49-2.29.09-1.13.67-2.24,1.74-3.31Z"/>
        <path class="cls-2" d="m42.83,66.73c.34.34.88.37,1.26.08.11-.08,2.67-2.1,3.06-5.2.33-2.59-1.13-4.63-1.2-4.71-.15-.21-.39-.35-.64-.38-.26-.03-.52.04-.72.2-2.05,1.64-3.16,3.47-3.31,5.43-.2,2.63,1.46,4.48,1.53,4.56,0,.01.02.02.03.03Zm2.08-7.75c.25.61.47,1.46.35,2.39-.17,1.38-.98,2.52-1.59,3.21-.29-.56-.56-1.36-.49-2.29.09-1.13.67-2.24,1.74-3.31Z"/>
        <path class="cls-2" d="m38.14,75.57c-2.16.27-3.79,1.6-4.61,2.41,0-.01-.01-.02-.02-.04,0,0-.01,0-.02-.01.82-.82,2.14-2.45,2.41-4.61.33-2.59-1.13-4.63-1.2-4.71-.15-.21-.39-.35-.64-.38-.26-.03-.52.04-.72.2-2.05,1.64-3.16,3.47-3.31,5.43-.2,2.63,1.46,4.48,1.53,4.56,0,.01.02.02.03.03.02.02.05.03.07.05l-4.48,4.86c-.37.37-.37.98,0,1.35s.98.37,1.35,0l4.47-4.85s.01.03.03.04c0,0,.02.02.03.03.08.07,1.92,1.73,4.56,1.53,1.96-.15,3.78-1.27,5.43-3.31.16-.2.24-.46.2-.72-.03-.26-.17-.49-.38-.64-.09-.06-2.12-1.52-4.71-1.2Zm-4.48-4.87c.25.61.47,1.46.35,2.39-.17,1.38-.98,2.52-1.59,3.21-.29-.56-.57-1.37-.49-2.31.09-1.13.68-2.23,1.73-3.29Zm3.82,8.85c-.94.08-1.75-.2-2.32-.49.69-.62,1.82-1.42,3.21-1.59.93-.12,1.78.1,2.39.35-1.06,1.06-2.16,1.64-3.29,1.73Z"/>
        <path class="cls-2" d="m43.76,69.95c-3.09.39-5.11,2.95-5.2,3.06-.3.38-.26.92.08,1.26,0,0,.02.02.03.03.08.07,1.92,1.73,4.56,1.53,1.96-.15,3.78-1.27,5.43-3.31.16-.2.24-.46.2-.72-.03-.26-.17-.49-.38-.64-.09-.06-2.12-1.53-4.71-1.2Zm-.66,3.97c-.94.08-1.75-.2-2.32-.49.69-.62,1.82-1.42,3.21-1.59.93-.12,1.78.1,2.39.35-1.06,1.06-2.16,1.64-3.29,1.73Z"/>
        <path class="cls-2" d="m54.79,65.74c-.06-.08-.13-.16-.22-.22-.09-.06-2.12-1.53-4.71-1.2-3.09.39-5.11,2.95-5.2,3.06-.3.38-.26.92.08,1.26,0,0,.02.02.03.03.08.08,2.09,1.89,4.87,1.68,1.95-.15,3.75-1.23,5.35-3.23.33-.41.27-1.01-.15-1.34-.02-.01-.03-.03-.05-.04Zm-5.28,2.7c-1.08.09-2.01-.28-2.64-.63.68-.62,1.82-1.43,3.23-1.61,1.11-.14,2.1.2,2.71.49-1.05,1.06-2.16,1.65-3.3,1.74Z"/>
        <path class="cls-2" d="m47.53,64.15c.18.18.43.29.7.28.13,0,3.3-.12,5.69-2.94,1.69-1.99,1.56-4.5,1.56-4.61-.01-.26-.13-.5-.33-.67-.2-.17-.46-.25-.71-.22-2.56.26-4.49,1.18-5.74,2.74-1.73,2.17-1.44,4.75-1.43,4.86.03.22.13.41.27.56Zm2.66-4.25c.73-.91,1.83-1.52,3.28-1.84-.13.65-.4,1.48-1.01,2.19-1.1,1.3-2.4,1.85-3.27,2.09.09-.69.34-1.62,1.01-2.45Z"/>
      </g>
    </g>
  </g>
</svg>