<svg xmlns="http://www.w3.org/2000/svg" viewBox="0 0 133.21 144"><defs><style>.cls-1{fill:#a5cd39;}</style></defs><g id="Camada_2" data-name="Camada 2"><g id="Layer_1" data-name="Layer 1"><path class="cls-1" d="M116,63.55c-.59,17.73-5.7,31.46-15.44,41.06Q84.94,120,57.93,120a76.59,76.59,0,0,1-17-1.83l-.51,1.18C38,125,35.76,130.67,33.65,136.39c-.79,2.14-1.58,4.33-2.35,6.51a1.64,1.64,0,0,1-1.55,1.1h-9.1a1.66,1.66,0,0,1-1.58-2.19c.9-2.61,1.85-5.24,2.79-7.8,2.12-5.72,4.37-11.43,6.74-17.08.36-.85.74-1.69,1.1-2.53h0C34.16,104,39,93.68,44.48,83.69A222,222,0,0,1,64.56,52.8c7.29-9.18,15.61-17.73,25.86-24.13a.24.24,0,0,0-.18-.43c-11.63,3.58-22.56,10-32.5,17.48A234.85,234.85,0,0,0,28.64,72c-7.1,7.49-13.84,15.32-20.3,23.38Q0,81.46,0,60.09q0-29.4,15.46-44.74T57.93,0H116V58.42Z"/><path class="cls-1" d="M132.52,83.18a3.29,3.29,0,0,0-2.62-1.29h-3.25a3.29,3.29,0,0,0-3.17,2.49c-3,11.44-8.33,21-15.93,28.53a61.49,61.49,0,0,1-26.3,15.22,3.27,3.27,0,0,0-2.39,3.15v2.51a3.31,3.31,0,0,0,1.3,2.64,3.26,3.26,0,0,0,2,.67A3.46,3.46,0,0,0,83,137a71,71,0,0,0,31.74-18c8.83-8.7,15-19.82,18.4-33A3.22,3.22,0,0,0,132.52,83.18Z"/></g></g></svg>